<?xml version="1.0" encoding="UTF-8"?>
<svg version="1.1" xmlns="http://www.w3.org/2000/svg" width="512" height="512">
<path d="M0 0 C3.80749895 0.08803466 4.98717435 0.30258681 8.25 2.5 C10.62640825 6.10294155 11.2608469 8.11003311 11.1875 12.4375 C9.29715097 18.62051661 4.90106383 23.76389478 1.09375 28.87109375 C-0.98282336 31.6668083 -2.91804222 34.51687758 -4.8125 37.4375 C-3.94367188 37.45167969 -3.07484375 37.46585938 -2.1796875 37.48046875 C8.40724697 37.91863047 8.40724697 37.91863047 11.9375 40.875 C14.56584018 43.86838742 15.12183581 44.68411398 15.46655273 48.63916016 C15.14209235 53.0555685 13.9567438 55.40856983 11.72265625 59.2109375 C11.3698912 59.82015045 11.01712616 60.4293634 10.65367126 61.05703735 C9.53308502 62.98410459 8.39190047 64.89800274 7.25 66.8125 C6.48627714 68.12030453 5.72389338 69.42889204 4.96289062 70.73828125 C-0.54295839 80.16795839 -0.54295839 80.16795839 -1.8125 81.4375 C-1.16216797 81.47190186 -0.51183594 81.50630371 0.15820312 81.54174805 C52.98812749 84.50172904 101.07871279 98.37105436 148.1875 122.4375 C148.73277344 121.65246094 149.27804687 120.86742188 149.83984375 120.05859375 C157.54258554 109.32742357 165.79704402 101.17777342 179.359375 98.90625 C192.12028476 97.58822176 201.92121787 100.40699699 212.4375 107.6875 C220.88808933 116.13808933 225.5266756 126.32552726 225.75 138.3125 C225.60743028 149.59416219 221.8367268 158.93090651 213.9375 167.0703125 C200.73205446 178.4375 200.73205446 178.4375 195.1875 178.4375 C195.364021 179.23333496 195.54054199 180.02916992 195.72241211 180.84912109 C196.38486579 183.84878805 197.04211476 186.84953855 197.69604492 189.85107422 C198.11571962 191.77006485 198.54119338 193.68778433 198.96679688 195.60546875 C202.95418324 213.95705421 202.95418324 213.95705421 201.125 219.875 C198.71316583 223.0648452 196.98951004 224.19453518 193.1875 225.4375 C188.86461106 225.51334016 186.93283888 225.09154931 183.66796875 222.2265625 C179.75061786 217.26083345 179.19351427 210.80629711 178.0625 204.75 C177.58367911 202.30801348 177.10194413 199.8665964 176.6171875 197.42578125 C176.38555908 196.24725586 176.15393066 195.06873047 175.9152832 193.85449219 C175.04838309 189.78433653 173.96701681 185.80551962 172.78540039 181.81665039 C171.84880937 178.08979067 171.28512978 174.20329696 172.1875 170.4375 C174.80661357 166.73789035 177.31887705 164.45208534 181.21484375 162.16796875 C182.17197266 161.58853516 183.12910156 161.00910156 184.11523438 160.41210938 C186.11372435 159.22546542 188.11631992 158.04570751 190.12304688 156.87304688 C196.0772272 153.24928548 200.48404959 150.02189209 203.1875 143.4375 C204.19103735 138.7763331 203.58540574 134.60911133 202.0625 130.125 C198.50320753 125.02334745 194.33420739 121.66684148 188.1875 120.4375 C182.33606812 120.62325974 177.89426535 121.74642901 173.1875 125.4375 C171.01479869 128.08051486 169.2933763 130.92898816 167.5625 133.875 C159.91730668 146.59878603 159.91730668 146.59878603 153.84375 148.46484375 C149.42240554 148.43177814 146.46074705 147.09462923 142.6875 145 C141.99245361 144.63455078 141.29740723 144.26910156 140.58129883 143.89257812 C138.43864287 142.76070052 136.31138538 141.6041693 134.1875 140.4375 C106.03067349 124.97557489 75.70232507 114.59680158 44.1875 108.4375 C42.93477295 108.1887915 42.93477295 108.1887915 41.65673828 107.93505859 C-26.71571241 94.8292831 -103.4217444 108.47276092 -163.01855469 144.35302734 C-167.27262386 146.85499684 -170.74875232 148.37895956 -175.8125 148.4375 C-182.00587078 146.6053271 -184.25851134 142.32629825 -187.375 137.0625 C-193.5585848 126.77230306 -193.5585848 126.77230306 -203.69921875 120.87890625 C-208.66410898 119.84187742 -212.57854586 120.77306315 -217.0625 123.1875 C-221.37603521 126.71675608 -224.37989608 129.95812844 -225.0859375 135.63671875 C-225.11945313 136.45785156 -225.15296875 137.27898437 -225.1875 138.125 C-225.23648438 138.93324219 -225.28546875 139.74148437 -225.3359375 140.57421875 C-224.4112057 145.63263973 -221.88075557 149.7022002 -217.93652344 153.01147461 C-215.83392866 154.45018435 -213.69650888 155.77202688 -211.5 157.0625 C-210.04371166 157.94746521 -208.58927627 158.83548686 -207.13671875 159.7265625 C-206.42563965 160.16258789 -205.71456055 160.59861328 -204.98193359 161.04785156 C-195.45653974 167.14942053 -195.45653974 167.14942053 -193.8125 170.4375 C-193.38528635 177.61468925 -194.64677095 183.55172457 -196.5625 190.4375 C-198.86634571 199.15584127 -200.72603827 207.84068132 -202.125 216.75 C-202.28387695 217.75611328 -202.44275391 218.76222656 -202.60644531 219.79882812 C-204.56394833 232.74846349 -205.05354516 245.48661078 -205.0625 258.5625 C-205.06317474 259.44977783 -205.06384949 260.33705566 -205.06454468 261.2512207 C-205.03345737 287.06705118 -201.61335744 312.11272456 -194.4296875 336.95239258 C-193.49025382 340.73502527 -192.77257882 344.64041939 -193.8125 348.4375 C-197.53526199 353.94777866 -202.1015333 356.75049703 -207.8125 360 C-215.1326043 364.20074167 -221.81980711 368.08946193 -224.8125 376.4375 C-225.7663705 382.67434557 -225.14562478 387.56584186 -221.42578125 392.7421875 C-217.6783616 396.68015391 -213.21753243 398.59769442 -207.8125 398.9375 C-203.16266357 398.61964009 -199.48316646 397.33689802 -195.8125 394.4375 C-192.82278775 390.97394657 -190.30857624 387.26688404 -187.8125 383.4375 C-186.70870133 381.77058959 -185.60456941 380.10389978 -184.5 378.4375 C-184.05011719 377.73625 -183.60023438 377.035 -183.13671875 376.3125 C-179.94870101 371.79849258 -179.94870101 371.79849258 -176.89453125 370.828125 C-170.06787134 370.40513058 -165.40976601 373.00227409 -159.73339844 376.39160156 C-135.34163079 390.93348759 -96.29346651 411.33949784 -66.8125 409.4375 C-66.33051537 408.18858386 -65.85204323 406.93831192 -65.375 405.6875 C-65.10816406 404.99140625 -64.84132812 404.2953125 -64.56640625 403.578125 C-63.85103307 401.54690997 -63.29884348 399.5339709 -62.8125 397.4375 C-63.50859375 397.210625 -64.2046875 396.98375 -64.921875 396.75 C-68.44281847 395.15130134 -71.16326957 392.94394257 -74.0625 390.4375 C-74.63315186 389.94620605 -75.20380371 389.45491211 -75.79174805 388.94873047 C-85.01896871 380.8728032 -91.76983647 372.11508567 -97.8125 361.4375 C-98.28558594 360.62796875 -98.75867188 359.8184375 -99.24609375 358.984375 C-106.98850513 344.80201397 -109.77239156 328.13066898 -109.8671875 312.12109375 C-109.9741254 303.15476176 -111.53773623 296.8123657 -115.65332031 288.81884766 C-128.53157977 263.74955424 -128.91081128 233.10586125 -120.86254883 206.46557617 C-116.25955344 192.24824747 -109.29627536 179.99432092 -99.8125 168.4375 C-99.11511719 167.58671875 -98.41773438 166.7359375 -97.69921875 165.859375 C-77.9874504 142.94039023 -50.90389663 129.88677237 -21 126.75 C-19.27196078 126.62855654 -17.54267337 126.52333806 -15.8125 126.4375 C-15.05324219 126.39625 -14.29398438 126.355 -13.51171875 126.3125 C18.10001664 125.46243653 47.41112571 138.05130362 70.1875 159.4375 C91.68297759 180.40106621 103.62061786 208.90136564 104.47314453 238.86206055 C104.63591886 252.57801731 102.63850047 265.83697639 98.375 278.875 C98.15118652 279.55949219 97.92737305 280.24398438 97.69677734 280.94921875 C96.18745154 285.26216612 94.27477571 289.08825559 92.05859375 293.0859375 C88.59196224 299.8972911 88.24794418 306.08376999 88.0625 313.625 C87.31739663 329.38388631 85.11912159 343.10672809 78.1875 357.4375 C77.75824219 358.33597656 77.32898438 359.23445313 76.88671875 360.16015625 C69.06070993 375.48149746 57.43483874 387.90324145 43.1875 397.4375 C42.5275 397.4375 41.8675 397.4375 41.1875 397.4375 C41.66440204 399.06316606 42.14409666 400.68801311 42.625 402.3125 C43.02525391 403.66988281 43.02525391 403.66988281 43.43359375 405.0546875 C44.11363826 407.42025381 44.11363826 407.42025381 45.1875 409.4375 C52.30829325 408.93181909 58.9839624 407.71777725 65.875 405.875 C66.86540283 405.61178955 67.85580566 405.3485791 68.8762207 405.07739258 C95.81770183 397.73319629 123.84062983 387.00208012 147.1875 371.4375 C150.65096518 370.6987889 153.7228733 370.69470101 157.1875 371.4375 C161.3559457 374.29095149 163.76125222 378.74084931 166.40625 382.9453125 C166.79482178 383.56132324 167.18339355 384.17733398 167.58374023 384.81201172 C168.34446503 386.03535019 169.08964811 387.26853227 169.81665039 388.51220703 C172.93815691 393.66473744 176.48126957 396.53542319 182.1875 398.4375 C188.470066 398.96992085 193.00718006 398.19351912 198.1875 394.4375 C201.53570123 390.23078564 203.31933822 386.62231087 203.5 381.25 C203.53738281 380.53457031 203.57476562 379.81914062 203.61328125 379.08203125 C202.7977149 374.01654114 201.05716132 370.01645509 197.08032227 366.65795898 C194.53980723 364.92483357 191.95673088 363.32013133 189.3125 361.75 C174.22695988 352.51641977 174.22695988 352.51641977 172.1875 348.4375 C171.73849992 341.09156432 173.07980772 334.87668844 175 327.8125 C176.84235424 320.83111587 178.53539266 313.93066397 179.75 306.8125 C181.55146386 297.6925892 181.55146386 297.6925892 186.1875 294.4375 C189.6878963 293.67629356 192.69032745 293.65077974 196.1875 294.4375 C199.01174288 296.62772918 200.60258603 298.26767207 202.1875 301.4375 C202.13570775 310.38343376 200.15256202 319.02214214 198.125 327.6875 C197.84333984 328.92113281 197.56167969 330.15476562 197.27148438 331.42578125 C196.58414066 334.43145375 195.8893831 337.43519583 195.1875 340.4375 C195.94812744 340.72794189 196.70875488 341.01838379 197.49243164 341.31762695 C208.25421235 345.78943492 217.21129119 353.83679436 222.328125 364.25 C226.61174269 375.15375411 226.70815242 386.76384947 222.51171875 397.71875 C217.2713104 408.47781847 208.37436522 415.52109297 197.1875 419.4375 C185.82550303 422.21365136 175.19643481 420.37380569 165.0625 414.8125 C157.70485228 410.16191135 152.88607176 403.6405968 148.1875 396.4375 C147.6927417 396.71311768 147.1979834 396.98873535 146.68823242 397.27270508 C127.13036553 408.06992965 106.58434781 416.95034849 85.1875 423.4375 C87.0746875 423.85708984 87.0746875 423.85708984 89 424.28515625 C116.18576718 430.55366075 138.14667529 442.74221331 154.1875 466.4375 C154.80367188 467.32566406 155.41984375 468.21382813 156.0546875 469.12890625 C160.10662606 475.45893471 162.73683713 482.11960175 165.1875 489.1875 C165.50283691 490.07493896 165.81817383 490.96237793 166.14306641 491.87670898 C168.00023266 497.52810293 168.76716791 501.6371569 167.1875 507.4375 C165.52947504 510.0515849 164.83547771 511.01884847 162.1875 512.4375 C157.6358948 513.2029502 153.08599451 513.11256499 148.484375 513.07241821 C147.05643215 513.07817945 145.6284967 513.0861206 144.20057678 513.09605443 C140.27638053 513.11695124 136.35279128 513.10660013 132.42859268 513.09112334 C128.19673778 513.07982519 123.96498834 513.09726488 119.7331543 513.11102295 C111.44289311 513.13327637 103.15285804 513.12844484 94.86258793 513.11395974 C88.12598373 513.10267576 81.38944297 513.10113296 74.65283203 513.10657883 C73.21560114 513.10772807 73.21560114 513.10772807 71.74933529 513.10890054 C69.8029696 513.11049914 67.85660392 513.1121202 65.91023827 513.1137635 C47.65169045 513.12802716 29.39326807 513.11161859 11.13474083 513.08476166 C-4.53783978 513.06242233 -20.21023523 513.06630228 -35.8828125 513.08935547 C-54.0752416 513.11610257 -72.2675607 513.12665381 -90.46000671 513.11129415 C-92.3992818 513.10970138 -94.33855691 513.10812952 -96.27783203 513.10657883 C-97.23203568 513.10580745 -98.18623934 513.10503607 -99.16935825 513.10424132 C-105.89922789 513.09992105 -112.62902787 513.10721791 -119.35888672 513.11897659 C-127.55844905 513.13298803 -135.75777201 513.12923029 -143.95730686 513.10257287 C-148.14229574 513.08941631 -152.32688526 513.08431332 -156.51187134 513.10081863 C-160.34135541 513.11569364 -164.17006916 513.10757157 -167.99948311 513.08093087 C-169.3863505 513.07533536 -170.77328267 513.07821047 -172.16010857 513.09030981 C-183.82404679 513.18428316 -183.82404679 513.18428316 -187.11035156 510.13756371 C-190.20748508 505.22467972 -190.14874064 501.13621572 -189.0625 495.6484375 C-188.66629604 494.36330377 -188.24877693 493.08458833 -187.8125 491.8125 C-187.5853833 491.12518799 -187.3582666 490.43787598 -187.12426758 489.72973633 C-183.16885669 478.21550745 -177.4606774 467.92238792 -169.8125 458.4375 C-169.13574219 457.59574219 -168.45898438 456.75398438 -167.76171875 455.88671875 C-151.80502046 437.12957615 -130.39015703 428.46063955 -106.8125 423.4375 C-107.66122681 423.16039185 -107.66122681 423.16039185 -108.52709961 422.87768555 C-129.75058754 415.88254296 -150.3526817 407.48055136 -169.8125 396.4375 C-170.2971875 397.15035156 -170.781875 397.86320312 -171.28125 398.59765625 C-178.69268382 409.18745495 -186.37449867 416.83623153 -199.2890625 420.0546875 C-211.211622 421.863373 -221.36801278 419.60236236 -231.48828125 413.16796875 C-239.53066652 407.18010879 -244.11144936 398.95439331 -246.8125 389.4375 C-247.9024526 377.54941237 -246.82785956 366.67476817 -239.75 356.6875 C-235.50428717 351.64571601 -230.26128926 348.07276151 -224.8125 344.4375 C-224.1628125 343.97988281 -223.513125 343.52226562 -222.84375 343.05078125 C-219.10263158 340.4375 -219.10263158 340.4375 -216.8125 340.4375 C-216.97854736 339.7347998 -217.14459473 339.03209961 -217.31567383 338.30810547 C-220.96002072 322.75737519 -224.09174432 307.32370586 -225.8125 291.4375 C-225.9067627 290.65834229 -226.00102539 289.87918457 -226.09814453 289.07641602 C-227.13501391 279.54148388 -227.05627083 269.95471806 -227.0625 260.375 C-227.06351212 258.97497238 -227.06351212 258.97497238 -227.06454468 257.54666138 C-227.03348534 230.42779887 -222.72923534 204.85831357 -216.8125 178.4375 C-217.51761719 178.18097656 -218.22273438 177.92445313 -218.94921875 177.66015625 C-230.36358882 172.78608008 -239.7659575 164.76134938 -244.8125 153.375 C-248.41443256 142.93550055 -248.30775405 131.91892003 -243.94921875 121.703125 C-239.38075924 112.59760432 -231.57874632 104.71364556 -222.125 100.625 C-211.24971872 97.0355162 -199.97564473 97.88023919 -189.6875 102.625 C-182.62038273 106.42952009 -177.60576899 111.0602606 -173.07421875 117.67578125 C-172.45893311 118.56950439 -171.84364746 119.46322754 -171.2097168 120.3840332 C-170.74863525 121.06167725 -170.28755371 121.73932129 -169.8125 122.4375 C-169.14532959 122.09082275 -168.47815918 121.74414551 -167.79077148 121.38696289 C-126.66397749 100.12950951 -78.24789733 81.70270861 -31.1875 82.375 C-30.34960938 82.38402344 -29.51171875 82.39304687 -28.6484375 82.40234375 C-28.04257813 82.41394531 -27.43671875 82.42554687 -26.8125 82.4375 C-26.47605469 81.47263672 -26.47605469 81.47263672 -26.1328125 80.48828125 C-24.32897249 76.32023674 -22.0171875 72.5176011 -19.6875 68.625 C-19.21957031 67.83673828 -18.75164062 67.04847656 -18.26953125 66.23632812 C-17.12034603 64.30147546 -15.96792997 62.36862772 -14.8125 60.4375 C-15.82570312 60.42332031 -16.83890625 60.40914062 -17.8828125 60.39453125 C-30.08555938 60.03133617 -30.08555938 60.03133617 -33.6875 57 C-36.10359033 54.08647931 -36.73055796 53.08086673 -37.20703125 49.33984375 C-36.67823693 44.10949199 -34.51413602 41.19758921 -31.5 37 C-30.95964111 36.22084229 -30.41928223 35.44168457 -29.86254883 34.63891602 C-28.74164827 33.02462969 -27.614222 31.41485595 -26.48046875 29.80957031 C-24.90058924 27.56277445 -23.35068214 25.29892161 -21.8125 23.0234375 C-6.33971925 0.16158205 -6.33971925 0.16158205 0 0 Z M-70.8125 169.4375 C-72.03259766 170.43910156 -72.03259766 170.43910156 -73.27734375 171.4609375 C-91.18846471 186.75024569 -102.81567973 209.9386875 -104.8125 233.4375 C-105.00015253 238.77237315 -104.93437839 244.10193477 -104.8125 249.4375 C-101.18703209 247.94513737 -99.26545578 245.90902908 -96.75 242.9375 C-81.7874342 225.99782518 -59.31972761 209.84597199 -36.0625 207.75 C-31.41860541 208.01032682 -28.80719095 210.29802472 -25.3671875 213.25 C5.16592799 239.39456372 42.71879603 249.79768279 82.1875 251.4375 C87.42299616 240.96650769 81.90309544 221.68580391 78.45605469 211.21582031 C69.70368306 187.38074537 52.66651396 167.3654536 29.5625 156.5 C-4.03306031 141.53391577 -42.43506177 145.45239568 -70.8125 169.4375 Z M-77.828125 252.3359375 C-78.8341981 253.35881668 -79.82765291 254.39416827 -80.8125 255.4375 C-81.47629669 256.12174042 -82.14009338 256.80598083 -82.82400513 257.51095581 C-88.6652666 264.06079379 -89.95493833 268.6418759 -89.6640625 277.296875 C-89.65748627 278.40371643 -89.65091003 279.51055786 -89.64413452 280.65093994 C-89.61285775 284.16476609 -89.52500636 287.67467559 -89.4375 291.1875 C-89.41448434 293.52861417 -89.39492377 295.86976499 -89.37890625 298.2109375 C-89.07319476 326.97837627 -84.51946883 351.08503641 -63.1328125 372.06640625 C-45.47197334 387.74099927 -24.80326787 392.86808111 -1.56640625 391.65625 C17.54885586 390.13787457 35.50255336 379.60973265 47.96875 365.3359375 C62.49143537 347.81902244 67.40874061 327.95038787 67.28515625 305.6171875 C67.2837413 304.63251495 67.28232635 303.64784241 67.28086853 302.6333313 C67.27532615 299.526355 67.26278483 296.41945407 67.25 293.3125 C67.24497754 291.19010522 67.24041595 289.06770929 67.23632812 286.9453125 C67.22537567 281.77601317 67.20815166 276.60676931 67.1875 271.4375 C64.76162937 270.22456469 62.55550789 270.16444109 59.8828125 269.94458008 C25.76161447 267.00398808 -9.86781662 253.50292133 -35.89453125 230.8359375 C-46.05220238 223.4297333 -70.68455485 245.81793422 -77.828125 252.3359375 Z M-42.8125 407.4375 C-43.21082031 408.40171875 -43.60914063 409.3659375 -44.01953125 410.359375 C-44.55439434 411.63553957 -45.08956696 412.91157445 -45.625 414.1875 C-45.88603516 414.82171875 -46.14707031 415.4559375 -46.41601562 416.109375 C-47.88469779 419.59069569 -49.49995953 422.46522577 -51.8125 425.4375 C-51.8125 426.0975 -51.8125 426.7575 -51.8125 427.4375 C-33.8318421 438.25214388 -16.74600854 444.24785285 4.5703125 439.71875 C13.82253983 437.13258525 22.21181839 432.75462107 30.1875 427.4375 C28.86041177 423.99690089 27.36903081 420.71853572 25.6875 417.4375 C24.00596919 414.15646428 22.51458823 410.87809911 21.1875 407.4375 C20.21296875 407.72625 19.2384375 408.015 18.234375 408.3125 C-1.7174846 413.72415304 -23.02215176 413.30130689 -42.8125 407.4375 Z M-81.53125 440.828125 C-82.38497192 440.97401062 -83.23869385 441.11989624 -84.11828613 441.27020264 C-85.92748983 441.58108094 -87.73636197 441.89389408 -89.54492188 442.20849609 C-92.27326492 442.68070931 -95.00365728 443.13940583 -97.734375 443.59765625 C-122.1731186 447.78256035 -142.8152008 456.57350633 -157.67578125 477.23828125 C-162.68641028 484.29591256 -162.68641028 484.29591256 -164.8125 492.4375 C-63.1725 492.4375 38.4675 492.4375 143.1875 492.4375 C137.32179994 474.84039983 124.0950421 460.84948066 107.72265625 452.38500977 C99.22299288 448.31375188 90.41314621 446.13851339 81.1875 444.4375 C79.40400146 444.10806396 79.40400146 444.10806396 77.58447266 443.77197266 C73.53947757 443.0328876 69.48933468 442.32546927 65.4375 441.625 C64.43636673 441.44889191 64.43636673 441.44889191 63.41500854 441.26922607 C61.49191647 440.93389283 59.56629114 440.61318965 57.640625 440.29296875 C56.51817383 440.10371826 55.39572266 439.91446777 54.23925781 439.71948242 C48.21777158 439.16309709 45.39633802 440.77473469 40.8125 444.5625 C27.6810806 454.85975569 10.86856436 460.70671051 -5.8125 461.4375 C-6.56144531 461.47746094 -7.31039062 461.51742188 -8.08203125 461.55859375 C-29.40511107 462.14420337 -50.72095245 455.13437278 -66.69140625 440.94140625 C-70.97892669 437.90145161 -76.63799099 439.98587041 -81.53125 440.828125 Z " fill="#000000" transform="translate(266.8125,-0.4375)"/>
<path d="M0 0 C2.87029869 1.79393668 4.49131638 2.98263276 6 6 C6.69634361 10.3328047 6.80659134 12.67593317 4.49609375 16.46875 C0.53447681 21.49248342 -3.86939367 26.03127714 -8.53125 30.40625 C-10.22589367 31.88389906 -10.22589367 31.88389906 -10 34 C-9.33613281 34.07476562 -8.67226563 34.14953125 -7.98828125 34.2265625 C0.13357213 35.43594797 0.13357213 35.43594797 3.125 38.6875 C5.32908557 42.58138451 5.6409778 44.59327761 5 49 C2.82814332 53.10854417 0.0113166 56.68958214 -2.875 60.3125 C-3.34969727 60.9120752 -3.82439453 61.51165039 -4.31347656 62.12939453 C-9.68473856 68.89481753 -15.11470675 75.61164805 -20.60498047 82.28076172 C-21.79693356 83.74973856 -22.95137863 85.24901664 -24.09765625 86.75390625 C-26.81771321 90.21748676 -28.68762808 92.3642399 -33.125 93.1875 C-37.23261811 92.98874428 -38.9071054 92.65105251 -42 90 C-44.12738138 87.28575479 -44.92909561 85.4760723 -45.4375 82.0625 C-44.46576215 75.26033505 -38.29157708 69.4837665 -34.06640625 64.2109375 C-31.17981949 60.58071481 -28.51803722 56.89583117 -26 53 C-27.010625 53.04125 -28.02125 53.0825 -29.0625 53.125 C-33.77695943 52.97533462 -38.04514145 52.49872489 -41.875 49.5625 C-44.50280264 45.91277411 -44.55707483 42.3173299 -44 38 C-40.6050357 32.234771 -35.71995335 27.58464389 -30.95703125 22.94921875 C-28.50299262 20.50497669 -26.2607433 17.91480299 -24 15.29296875 C-21.43225957 12.34909447 -18.81681893 9.45137278 -16.1875 6.5625 C-15.70692139 6.02979492 -15.22634277 5.49708984 -14.73120117 4.94824219 C-10.09596105 -0.12872357 -6.76294807 -0.87602954 0 0 Z " fill="#000000" transform="translate(425,0)"/>
<path d="M0 0 C4.18386105 2.32818551 7.1495159 6.13209274 10.23828125 9.71875 C14.50610425 14.62009559 18.98247052 19.31235993 23.48242188 24 C34.60935805 35.73427666 34.60935805 35.73427666 35.625 41.625 C34.86121323 45.74944858 33.82304691 47.88740982 31 51 C26.27612747 52.96085275 22.07745026 53.20724287 17 53 C21.79745339 59.6869532 26.69799056 66.27121042 31.76123047 72.75854492 C36.23977035 78.52185376 36.23977035 78.52185376 35.8125 83.375 C35.4173787 86.37213959 35.06368579 87.89810273 33.4375 90.5 C30.12112241 92.54084775 26.90090994 93.39953454 23 93 C13.36338145 88.20403219 6.94123887 77.22502285 0.46289062 68.87451172 C-1.03915635 66.94982602 -2.55626973 65.03795922 -4.078125 63.12890625 C-4.82775513 62.18567505 -4.82775513 62.18567505 -5.5925293 61.22338867 C-6.54978609 60.01970304 -7.50946529 58.81793863 -8.47192383 57.6184082 C-11.65132815 53.60558501 -13.77696323 50.72056935 -14.4375 45.625 C-13.99898025 41.99155061 -13.27274197 39.93504562 -10.77734375 37.22265625 C-7.28781416 34.82216666 -3.1311527 34.46525603 1 34 C-0.49466796 30.45915558 -2.53548356 28.3151643 -5.3125 25.6875 C-15.20050638 15.9270808 -15.20050638 15.9270808 -15.5625 9.875 C-14.94486585 5.62018694 -14.04959092 3.95989707 -11 1 C-7.47221459 -0.7638927 -3.841947 -0.6519284 0 0 Z " fill="#000000" transform="translate(96,0)"/>
<path d="M0 0 C3.56349992 2.51616302 6.01448818 4.41648165 7.6796875 8.5390625 C8.18039482 12.37781865 7.80680166 14.27466505 6.1171875 17.7890625 C3.05694805 21.24164034 1.24611466 21.99728301 -3.3203125 22.5390625 C-6.88485136 21.37136874 -9.68030891 19.98214191 -12.7578125 17.8515625 C-16.31299651 16.03061459 -19.46199434 15.74889033 -23.3203125 16.5390625 C-25.51062559 17.66654839 -27.48243063 18.95922974 -29.515625 20.34765625 C-31.87624228 21.90607242 -33.47616475 22.5390625 -36.3203125 22.5390625 C-40.20430374 21.33368591 -42.6275453 20.36591367 -45.2578125 17.2265625 C-46.54254255 13.97695121 -46.81597587 12.0087061 -46.3203125 8.5390625 C-43.01141678 2.05362689 -37.90624095 -1.62889533 -31.2578125 -4.2734375 C-20.26449198 -7.53766578 -9.59431865 -6.0408673 0 0 Z " fill="#000000" transform="translate(275.3203125,336.4609375)"/>
<path d="M0 0 C2.3125 1.8125 2.3125 1.8125 3.5 4.4375 C5.05164199 7.02439503 5.05164199 7.02439503 7.54296875 7.21484375 C9.3158448 7.32221143 11.08934084 7.4197629 12.86328125 7.5078125 C16.26715892 7.9312614 17.99952369 9.35029941 20.3125 11.8125 C21.91680264 15.02110529 21.79355318 18.3315457 21.3125 21.8125 C18.91261109 25.90119963 16.73856597 27.36258184 12.3125 28.8125 C4.97667346 29.6826808 -1.70028537 29.43488721 -7.6875 24.8125 C-11.51153328 21.18534764 -15.62708354 17.11458232 -16.6875 11.8125 C-16.73795138 7.63344388 -16.39652243 4.73422916 -13.8125 1.375 C-9.46117355 -1.82450474 -4.90330433 -2.16657633 0 0 Z " fill="#000000" transform="translate(286.6875,285.1875)"/>
<path d="M0 0 C3.53306296 2.20816435 3.92071823 3.70269335 5 7.75 C5.35339855 12.63414915 3.86026096 16.09539307 1 20 C-3.86043841 25.25257569 -8.31969382 28.62108466 -15.60546875 29.2109375 C-22.20289381 29.4424261 -26.80631737 28.87431436 -31.875 24.3125 C-33.53404976 20.90223105 -33.67742562 17.67120981 -33 14 C-31.20636089 11.1899654 -29.98119065 9.49059532 -27 8 C-25.37559461 7.92359069 -23.75041271 7.86314342 -22.125 7.8125 C-19.43754094 7.64894792 -19.43754094 7.64894792 -17 7 C-14.55680773 4.16931218 -14.55680773 4.16931218 -13 1 C-8.74853034 -1.80086091 -4.76174582 -1.18168324 0 0 Z " fill="#000000" transform="translate(237,285)"/>
<path d="M0 0 C2.87029869 1.79393668 4.49131638 2.98263276 6 6 C6.45487581 10.54875813 6.71689456 13.67392638 3.9375 17.4375 C0.41360794 20.5115335 -1.34975862 21.08158318 -6 21 C-9.60115926 19.75344487 -11.47582284 18.64648516 -13.875 15.6875 C-15.23833511 12.43064391 -15.50047119 10.50329831 -15 7 C-11.06142639 0.04185329 -7.71503326 -0.99935664 0 0 Z " fill="#000000" transform="translate(466,249)"/>
</svg>
